<svg xmlns="http://www.w3.org/2000/svg" viewBox="0 0 276.21 357.31"><defs><style>.cls-1,.cls-9{opacity:0.4;}.cls-2,.cls-3,.cls-4,.cls-5,.cls-6,.cls-7,.cls-8,.cls-9{fill:#414042;}.cls-19,.cls-3{opacity:0.2;}.cls-14,.cls-4{opacity:0.3;}.cls-15,.cls-5{opacity:0.35;}.cls-16,.cls-6{opacity:0.5;}.cls-17,.cls-7{opacity:0.7;}.cls-20,.cls-8{opacity:0.1;}.cls-10{fill:#4c5d32;}.cls-10,.cls-11,.cls-21,.cls-22{stroke:#414042;stroke-miterlimit:10;}.cls-10,.cls-21{stroke-width:6px;}.cls-11{fill:#c3da94;}.cls-11,.cls-22{stroke-width:3px;}.cls-12{fill:#a2cc8f;}.cls-13{fill:#807445;}.cls-18{fill:#fff;}.cls-21,.cls-22{fill:none;}</style></defs><g id="Layer_1" data-name="Layer 1"><g class="cls-1"><path class="cls-2" d="M403.79,521c-65.53,0-117.65-55.61-117.65-128.74,0-29.73,20.25-67.69,32.59-104.87,18.59-56,46.18-105.66,85.06-105.66s66.48,49.66,85.06,105.66c12.34,37.18,32.6,75.14,32.6,104.87C521.45,465.42,469.32,521,403.79,521Z" transform="translate(-249.23 -166.72)"/><path class="cls-2" d="M403.79,524c-32.69,0-63.09-13.47-85.6-37.92s-35.05-57.86-35.05-93.82c0-21.11,9.68-45.61,19.92-71.54,4.45-11.24,9-22.86,12.82-34.27,23.73-71.47,53.3-107.72,87.91-107.72S468,215,491.7,286.48c3.79,11.41,8.38,23,12.82,34.27,10.25,25.93,19.93,50.43,19.93,71.54,0,36-12.45,69.28-35.05,93.82S436.48,524,403.79,524Zm0-339.27c-16.94,0-33,10.3-47.71,30.59-12.56,17.32-24.17,41.89-34.5,73-3.84,11.57-8.46,23.27-12.94,34.58-10,25.39-19.5,49.37-19.5,69.34,0,34.45,11.88,66.33,33.46,89.76,21.37,23.2,50.2,36,81.19,36s59.83-12.78,81.2-36c21.57-23.43,33.46-55.31,33.46-89.76,0-20-9.48-44-19.51-69.34-4.47-11.31-9.09-23-12.93-34.58-10.34-31.13-21.94-55.7-34.5-73C436.79,195.06,420.73,184.76,403.79,184.76Z" transform="translate(-249.23 -166.72)"/><path class="cls-2" d="M402.79,513c-29.57,0-57.1-12.21-77.51-34.37-20.73-22.5-32.14-53.17-32.14-86.37,0-19,9.3-42.57,19.16-67.5,4.49-11.38,9.14-23.14,13-34.85,15.17-45.7,40.92-100.18,77.47-100.18s62.3,54.48,77.47,100.18c3.89,11.71,8.53,23.47,13,34.85,9.85,24.93,19.16,48.48,19.16,67.5,0,33.2-11.42,63.87-32.14,86.37C459.9,500.82,432.37,513,402.79,513Z" transform="translate(-249.23 -166.72)"/><path class="cls-2" d="M402.79,514.53c-30,0-57.92-12.38-78.62-34.85-21-22.78-32.53-53.82-32.53-87.39,0-19.3,9.36-43,19.26-68.05,4.49-11.37,9.13-23.11,13-34.77,15.32-46.17,41.45-101.21,78.89-101.21s63.57,55,78.9,101.21c3.87,11.68,8.51,23.42,13,34.77C504.59,349.31,514,373,514,392.29c0,33.57-11.56,64.61-32.54,87.39C460.72,502.15,432.79,514.53,402.79,514.53Zm0-323.27c-19.68,0-48.84,17.21-76,99.16-3.9,11.73-8.55,23.51-13.05,34.91-9.81,24.81-19.06,48.23-19.06,67,0,32.82,11.27,63.13,31.74,85.36,20.12,21.85,47.26,33.88,76.41,33.88s56.29-12,76.41-33.88C499.67,455.42,511,425.11,511,392.29c0-18.74-9.26-42.15-19.06-67-4.5-11.39-9.15-23.17-13.05-34.92C451.64,208.47,422.47,191.26,402.79,191.26Z" transform="translate(-249.23 -166.72)"/><path class="cls-2" d="M402.79,201.76c12.17,0,24.54,9.29,36.77,27.62,10.5,15.73,20.36,37.37,29.31,64.34,4,12,8.71,23.95,13.26,35.48,9.42,23.84,18.32,46.35,18.32,63.09,0,30.18-10.29,58-29,78.24C453.37,490.2,429,501,402.79,501s-50.58-10.83-68.69-30.5c-18.67-20.28-29-48.06-29-78.24,0-16.73,8.9-39.25,18.32-63.1,4.56-11.53,9.27-23.45,13.25-35.47,9-27,18.81-48.61,29.31-64.34,12.23-18.33,24.6-27.62,36.77-27.62m0-12c-36.55,0-62.3,54.48-77.47,100.18-3.88,11.71-8.53,23.47-13,34.85-9.86,24.93-19.16,48.48-19.16,67.5,0,33.2,11.41,63.87,32.14,86.37C345.69,500.82,373.22,513,402.79,513s57.11-12.21,77.52-34.37c20.72-22.5,32.14-53.17,32.14-86.37,0-19-9.31-42.57-19.16-67.5-4.5-11.38-9.14-23.14-13-34.85-15.17-45.7-40.92-100.18-77.47-100.18Z" transform="translate(-249.23 -166.72)"/><ellipse class="cls-2" cx="155.56" cy="234.55" rx="50.02" ry="56.4"/><path class="cls-3" d="M404.79,344.88a44.92,44.92,0,0,0-6.27.45c14,10,23.35,27.62,23.35,47.71,0,28.75-19.08,52.46-43.74,55.94a45.72,45.72,0,0,0,26.66,8.69c27.63,0,50-25.25,50-56.4S432.42,344.88,404.79,344.88Z" transform="translate(-249.23 -166.72)"/><path class="cls-4" d="M444.91,402.6a25,25,0,0,1,.8,7.84,37.35,37.35,0,0,1-1.17,7.65,39.15,39.15,0,0,1-6.86,14,35.77,35.77,0,0,1-5.52,5.76,31.37,31.37,0,0,1-6.76,4.36,24.35,24.35,0,0,1-15.61,2.2c3.92-3.73,7.25-6.68,10.18-9.93,1.48-1.58,2.89-3.16,4.23-4.79s2.69-3.24,4-4.93c2.61-3.36,5.14-6.89,7.81-10.57S441.43,406.67,444.91,402.6Z" transform="translate(-249.23 -166.72)"/><path class="cls-5" d="M404.79,343.83a31.07,31.07,0,0,1,11.76-3.6,41.18,41.18,0,0,1,12.78.64,51.52,51.52,0,0,1,23.44,12.06c1.67,1.5,3.27,3.1,4.79,4.76.79.83,1.45,1.73,2.17,2.61s1.36,1.79,2,2.71a62.91,62.91,0,0,1,6.61,11.84,67.79,67.79,0,0,1,0,52.84,62,62,0,0,1-6.62,11.82c-.66.92-1.31,1.84-2,2.72s-1.38,1.78-2.17,2.59a67.21,67.21,0,0,1-4.79,4.76,51.6,51.6,0,0,1-23.42,12.06,41.42,41.42,0,0,1-12.77.65,31,31,0,0,1-11.75-3.57v-2.1a43.86,43.86,0,0,0,19.47-5.13,49.23,49.23,0,0,0,15.51-12.74,58,58,0,0,0,9.72-17.6,62.86,62.86,0,0,0,0-39.75,57.65,57.65,0,0,0-9.71-17.6,49.23,49.23,0,0,0-15.51-12.74,43.86,43.86,0,0,0-19.47-5.13Z" transform="translate(-249.23 -166.72)"/><path class="cls-6" d="M512.45,367.44a175.27,175.27,0,0,1,3,32.21q0,8.13-.62,16.26c-.44,5.41-1.19,10.81-2.17,16.17a127.92,127.92,0,0,1-9.84,31.3,95,95,0,0,1-19,27.09,86.62,86.62,0,0,1-27.83,18,108.64,108.64,0,0,1-32.1,7.19,161,161,0,0,1-32.57-1.1,215.88,215.88,0,0,1-31.63-6.83,308.88,308.88,0,0,0,31.92,3.89,180.75,180.75,0,0,0,31.83-.62,111.22,111.22,0,0,0,30.38-7.78,82.27,82.27,0,0,0,25.81-17.06,91,91,0,0,0,18.09-25.27,134.48,134.48,0,0,0,10.37-29.77,198.64,198.64,0,0,0,4.43-31.57A231.26,231.26,0,0,0,512.45,367.44Z" transform="translate(-249.23 -166.72)"/><path class="cls-7" d="M399,186.18A72.74,72.74,0,0,0,385.86,194l-1.53,1.1c-.51.38-1,.79-1.49,1.18l-2.95,2.36c-1,.81-1.89,1.68-2.83,2.51s-1.91,1.65-2.82,2.52a164.28,164.28,0,0,0-20.32,22.57c-6.11,8.2-11.05,17.25-15.87,26.35-2.18,4.67-4.38,9.35-6.5,14.07q-2.82,7.21-5.72,14.45l-.57-.19q2.24-7.45,4.56-14.92c1.78-4.9,3.64-9.77,5.51-14.66l3.26-7.13c1.11-2.37,2.11-4.8,3.42-7.07l3.79-6.91c.32-.57.63-1.16,1-1.72l1.07-1.66,2.14-3.33c1.42-2.21,2.79-4.47,4.41-6.57s3.07-4.32,4.73-6.39,3.48-4,5.27-6,3.92-3.63,5.9-5.41,4.25-3.26,6.45-4.77l3.43-2.09c.57-.34,1.12-.71,1.71-1l1.81-.89a42.27,42.27,0,0,1,15.19-4.82Z" transform="translate(-249.23 -166.72)"/><path class="cls-3" d="M406.88,237.47c-.09.09-.15.19-.24.28l-.26.25c-.17.17-.3.33-.47.52a8.14,8.14,0,0,0-.79,1c-.24.38-.44.68-.61,1a9.85,9.85,0,0,0-.48,1c-.15.32-.24.57-.36.9s-.22.6-.31.89l-.45,1.63c-.14.52-.23.93-.39,1.45s-.25,1-.38,1.33-.31.91-.47,1.31l-.25.57a6.09,6.09,0,0,0-.28.57,5.79,5.79,0,0,1-1.56,2.05,7.61,7.61,0,0,1-2.43,1.6,13.61,13.61,0,0,0-1.47.75l-1.51.81c-.51.28-1,.57-1.48.88a10.65,10.65,0,0,0-1.35,1.08c-1.71,1.56-3.51,3.09-5.2,4.86s-3.63,3.37-5.36,5.22l-2.71,2.73c-.46.45-.93.9-1.38,1.37s-.89,1-1.34,1.42l-2.73,2.85c-1,.94-1.88,1.9-2.87,2.84l-2.29-1a102.48,102.48,0,0,1,2.32-16.12c.32-1.33.56-2.69,1-4l1.22-4c.47-1.3.83-2.65,1.43-3.94l1.72-3.91,1.76-4.1.88-2.15a14.75,14.75,0,0,1,1-2.14,19.87,19.87,0,0,1,2.83-3.89,18.75,18.75,0,0,1,4.19-2.93,21.91,21.91,0,0,1,2.57-1,21.57,21.57,0,0,1,2.7-.79,23.75,23.75,0,0,1,3-.41,14.64,14.64,0,0,1,1.52-.07c.55,0,1.09.06,1.62.1s1.05.12,1.56.2a12,12,0,0,1,1.63.39c.54.17,1.05.32,1.56.53a15.45,15.45,0,0,1,1.53.75,12.39,12.39,0,0,1,1.42.93,10.29,10.29,0,0,1,1.28,1.18,11.6,11.6,0,0,1,1.08,1.37c.15.24.31.54.44.8s.13.27.18.41.15.32.2.48Z" transform="translate(-249.23 -166.72)"/><path class="cls-8" d="M383.6,484.24A33.76,33.76,0,0,1,376,485a51.31,51.31,0,0,1-7.62-.55,58.31,58.31,0,0,1-14.86-4.26A59.38,59.38,0,0,1,329,460.43a62.79,62.79,0,0,1-11.38-29.15,64.88,64.88,0,0,1,3.07-30c.83,2.43,1.46,4.81,2.06,7.16.38,1.17.69,2.34,1,3.49s.57,2.31,1,3.44c1.41,4.53,2.69,9,4.37,13.16a96,96,0,0,0,12,23.12A84.05,84.05,0,0,0,359.37,470a110.78,110.78,0,0,0,11.4,7.53C374.81,479.87,379,482.07,383.6,484.24Z" transform="translate(-249.23 -166.72)"/><path class="cls-9" d="M404.79,364.14a48.6,48.6,0,0,0-6.55,2.9,33.92,33.92,0,0,0-5.18,3.33,37.7,37.7,0,0,0-7.66,8.1,104.9,104.9,0,0,0-6.32,10.45,135.76,135.76,0,0,1-7.17,12.35A30.83,30.83,0,0,1,370,386.19a31.74,31.74,0,0,1,5.62-14.73,25,25,0,0,1,13.53-9.68,20.87,20.87,0,0,1,8.22-.55A15.36,15.36,0,0,1,404.79,364.14Z" transform="translate(-249.23 -166.72)"/><path class="cls-2" d="M404.79,524c-32.69,0-63.09-13.47-85.6-37.92s-35.05-57.86-35.05-93.82c0-21.11,9.68-45.61,19.92-71.54,4.45-11.24,9-22.86,12.82-34.27,23.73-71.47,53.3-107.72,87.91-107.72S469,215,492.7,286.48c3.79,11.41,8.38,23,12.82,34.27,10.25,25.93,19.93,50.43,19.93,71.54,0,36-12.45,69.28-35.05,93.82S437.48,524,404.79,524Zm0-339.27c-16.94,0-33,10.3-47.71,30.59-12.56,17.32-24.17,41.89-34.5,73-3.84,11.57-8.46,23.27-12.94,34.58-10,25.39-19.5,49.37-19.5,69.34,0,34.45,11.88,66.33,33.46,89.76,21.37,23.2,50.2,36,81.19,36s59.83-12.78,81.2-36c21.57-23.43,33.46-55.31,33.46-89.76,0-20-9.48-44-19.51-69.34-4.47-11.31-9.09-23-12.93-34.58-10.34-31.13-21.94-55.7-34.5-73C437.79,195.06,421.73,184.76,404.79,184.76Z" transform="translate(-249.23 -166.72)"/><path class="cls-2" d="M403.79,514.53c-30,0-57.92-12.38-78.62-34.85-21-22.78-32.53-53.82-32.53-87.39,0-19.3,9.36-43,19.26-68.05,4.49-11.37,9.13-23.11,13-34.77,15.32-46.17,41.45-101.21,78.89-101.21s63.57,55,78.9,101.21c3.87,11.68,8.51,23.42,13,34.77C505.59,349.31,515,373,515,392.29c0,33.57-11.56,64.61-32.54,87.39C461.72,502.15,433.79,514.53,403.79,514.53Zm0-323.27c-19.68,0-48.84,17.21-76,99.16-3.9,11.73-8.55,23.51-13.05,34.91-9.81,24.81-19.06,48.23-19.06,67,0,32.82,11.27,63.13,31.74,85.36,20.12,21.85,47.26,33.88,76.41,33.88s56.29-12,76.41-33.88C500.67,455.42,512,425.11,512,392.29c0-18.74-9.26-42.15-19.06-67-4.5-11.39-9.15-23.17-13.05-34.92C452.64,208.47,423.47,191.26,403.79,191.26Z" transform="translate(-249.23 -166.72)"/><path class="cls-2" d="M454.81,401.27a61.35,61.35,0,0,1-2.13,19.26,59.23,59.23,0,0,1-8.31,17.75,53.28,53.28,0,0,1-14.15,13.89,47.48,47.48,0,0,1-18.66,7.33,46.52,46.52,0,0,1-20.18-1.14A50.44,50.44,0,0,1,373.43,449a60,60,0,0,1-20.28-34.25,65.7,65.7,0,0,1,4.19-39.55,59.23,59.23,0,0,1,11.24-16.71,50.94,50.94,0,0,1,16.47-11.57,46.73,46.73,0,0,1,19.68-4l2.51.16,1.25.08,1.25.17,2.48.37,2.45.55,1.22.29,1.2.37,2.38.75,2.31.94c.39.16.78.3,1.16.47l1.11.56a49.48,49.48,0,0,1,8.41,5.23c1.27,1,2.57,2,3.74,3.21.58.58,1.21,1.1,1.76,1.71l1.65,1.82a55.9,55.9,0,0,1,10,16.59,59.5,59.5,0,0,0-5-8.2c-.89-1.33-1.94-2.53-2.93-3.78-.5-.61-1.07-1.17-1.6-1.76s-1.06-1.18-1.66-1.71l-1.73-1.62c-.57-.55-1.21-1-1.81-1.54-1.18-1-2.5-1.91-3.77-2.84a47.26,47.26,0,0,0-8.26-4.43c-1.41-.66-2.92-1.07-4.37-1.61l-2.25-.59-1.13-.29-1.14-.2-2.28-.4-2.31-.22c-.38,0-.77-.08-1.15-.1l-1.16,0-2.31,0A43.58,43.58,0,0,0,387,351.12,49,49,0,0,0,372.41,362a53.42,53.42,0,0,0-9.86,15.39A60.4,60.4,0,0,0,359,413.49a54.66,54.66,0,0,0,18,31.09,44.81,44.81,0,0,0,15.82,8.75,43.74,43.74,0,0,0,18,1.55c12.15-1.49,23.45-8.46,31.13-18.35a58.88,58.88,0,0,0,9.09-16.5,60.89,60.89,0,0,0,2.52-9.21A64.9,64.9,0,0,0,454.81,401.27Z" transform="translate(-249.23 -166.72)"/></g><path class="cls-10" d="M369.89,509c-65.54,0-117.66-55.61-117.66-128.74,0-29.73,20.26-67.69,32.59-104.87,18.59-56,46.18-105.66,85.07-105.66S436.36,219.37,455,275.38c12.33,37.18,32.59,75.14,32.59,104.87C487.54,453.38,435.42,509,369.89,509Z" transform="translate(-249.23 -166.72)"/><path class="cls-11" d="M368.88,501c-29.57,0-57.1-12.21-77.51-34.37-20.72-22.5-32.14-53.18-32.14-86.37,0-19,9.31-42.57,19.16-67.5,4.49-11.38,9.14-23.15,13-34.85,15.16-45.7,40.92-100.18,77.46-100.18s62.31,54.48,77.47,100.18c3.89,11.7,8.54,23.47,13,34.85,9.85,24.93,19.16,48.48,19.16,67.5,0,33.19-11.41,63.87-32.14,86.37C426,488.78,398.46,501,368.88,501Z" transform="translate(-249.23 -166.72)"/><path class="cls-12" d="M368.88,189.72c12.18,0,24.55,9.29,36.78,27.62,10.49,15.72,20.35,37.37,29.3,64.34,4,12,8.71,23.95,13.26,35.48,9.42,23.84,18.32,46.35,18.32,63.09,0,30.17-10.29,58-29,78.24-18.11,19.67-42.5,30.5-68.69,30.5s-50.57-10.83-68.68-30.5c-18.68-20.28-29-48.07-29-78.24,0-16.74,8.9-39.25,18.32-63.11,4.56-11.52,9.27-23.44,13.26-35.46,8.95-27,18.81-48.62,29.3-64.34,12.23-18.33,24.6-27.62,36.77-27.62m0-12c-36.54,0-62.3,54.48-77.46,100.18-3.89,11.7-8.54,23.47-13,34.85-9.85,24.93-19.16,48.48-19.16,67.5,0,33.19,11.42,63.87,32.14,86.37C311.78,488.78,339.31,501,368.88,501S426,488.78,446.4,466.62c20.73-22.5,32.14-53.18,32.14-86.37,0-19-9.31-42.57-19.16-67.5-4.49-11.38-9.14-23.15-13-34.85-15.16-45.7-40.92-100.18-77.47-100.18Z" transform="translate(-249.23 -166.72)"/><ellipse class="cls-13" cx="121.65" cy="222.51" rx="50.02" ry="56.4"/><path class="cls-3" d="M370.88,332.83a44.93,44.93,0,0,0-6.27.46c14,10,23.35,27.62,23.35,47.71,0,28.75-19.08,52.45-43.74,55.94a45.79,45.79,0,0,0,26.66,8.69c27.63,0,50-25.25,50-56.4S398.51,332.83,370.88,332.83Z" transform="translate(-249.23 -166.72)"/><g class="cls-14"><path class="cls-2" d="M411,390.56a24.73,24.73,0,0,1,.8,7.84,37.13,37.13,0,0,1-1.16,7.64,39.3,39.3,0,0,1-6.87,14,35.77,35.77,0,0,1-5.52,5.76,31.37,31.37,0,0,1-6.76,4.36,24.35,24.35,0,0,1-15.61,2.2c3.92-3.73,7.25-6.68,10.18-9.93,1.48-1.58,2.89-3.16,4.24-4.79s2.68-3.24,4-4.94c2.62-3.35,5.14-6.88,7.81-10.56S407.52,394.63,411,390.56Z" transform="translate(-249.23 -166.72)"/></g><g class="cls-15"><path class="cls-2" d="M370.88,331.78a31.12,31.12,0,0,1,11.76-3.59,41.24,41.24,0,0,1,12.79.64,51.48,51.48,0,0,1,23.43,12.06,67.21,67.21,0,0,1,4.79,4.76c.79.83,1.46,1.73,2.17,2.6s1.36,1.8,2,2.72a62.91,62.91,0,0,1,6.61,11.84,67.77,67.77,0,0,1,0,52.83,62.27,62.27,0,0,1-6.61,11.83c-.67.92-1.31,1.84-2,2.71a33.57,33.57,0,0,1-2.17,2.6,67.21,67.21,0,0,1-4.79,4.76,51.56,51.56,0,0,1-23.41,12.06,41.5,41.5,0,0,1-12.78.65,31.28,31.28,0,0,1-11.75-3.57v-2.1a43.78,43.78,0,0,0,19.48-5.14,49.19,49.19,0,0,0,15.5-12.74,57.83,57.83,0,0,0,9.72-17.59,62.76,62.76,0,0,0,0-39.75,57.77,57.77,0,0,0-9.72-17.6A49.19,49.19,0,0,0,390.36,339a43.91,43.91,0,0,0-19.48-5.14Z" transform="translate(-249.23 -166.72)"/></g><g class="cls-16"><path class="cls-2" d="M478.54,355.4a174.41,174.41,0,0,1,3,32.21q0,8.13-.62,16.25c-.44,5.42-1.19,10.82-2.17,16.18a128.06,128.06,0,0,1-9.84,31.3,94.89,94.89,0,0,1-19,27.09,86.79,86.79,0,0,1-27.83,18,108.5,108.5,0,0,1-32.1,7.19,160.15,160.15,0,0,1-32.56-1.11,214.69,214.69,0,0,1-31.64-6.82,309.07,309.07,0,0,0,31.93,3.89,180.65,180.65,0,0,0,31.82-.62,111.22,111.22,0,0,0,30.38-7.78,82.3,82.3,0,0,0,25.81-17.07,90.74,90.74,0,0,0,18.09-25.26A134,134,0,0,0,474.2,419.1a197.5,197.5,0,0,0,4.43-31.57A231.26,231.26,0,0,0,478.54,355.4Z" transform="translate(-249.23 -166.72)"/></g><g class="cls-17"><path class="cls-18" d="M365.08,174.14A72.48,72.48,0,0,0,352,182l-1.53,1.1c-.51.38-1,.79-1.49,1.18L346,186.62c-1,.81-1.89,1.68-2.83,2.51s-1.9,1.65-2.82,2.51A164.23,164.23,0,0,0,320,214.22c-6.12,8.2-11.06,17.25-15.88,26.35-2.18,4.67-4.38,9.34-6.5,14.06q-2.81,7.23-5.72,14.45l-.57-.18q2.23-7.45,4.57-14.93c1.77-4.89,3.63-9.76,5.5-14.65l3.26-7.13c1.11-2.37,2.11-4.8,3.43-7.08l3.79-6.9c.32-.57.62-1.16,1-1.72l1.06-1.66,2.14-3.33c1.42-2.22,2.79-4.47,4.41-6.57s3.07-4.32,4.73-6.39,3.48-4,5.27-6,3.92-3.63,5.9-5.41,4.25-3.26,6.45-4.77l3.43-2.09c.57-.34,1.13-.71,1.72-1l1.8-.89A42.51,42.51,0,0,1,365,173.55Z" transform="translate(-249.23 -166.72)"/></g><g class="cls-19"><path class="cls-18" d="M373,225.43c-.09.09-.15.19-.23.28l-.27.25c-.17.17-.3.33-.47.52a8.35,8.35,0,0,0-.79,1c-.24.38-.44.68-.61,1s-.35.67-.48,1-.24.56-.36.89-.22.61-.3.9L369,232.9c-.14.52-.22.92-.38,1.45s-.26,1-.39,1.33-.31.91-.47,1.31l-.25.57c-.09.19-.18.32-.28.57a5.79,5.79,0,0,1-1.56,2.05,7.78,7.78,0,0,1-2.43,1.6,13.61,13.61,0,0,0-1.47.75l-1.51.81c-.5.27-1,.57-1.48.87a11.7,11.7,0,0,0-1.35,1.09c-1.7,1.56-3.51,3.08-5.2,4.85s-3.62,3.38-5.36,5.23l-2.71,2.72c-.46.46-.93.91-1.38,1.38s-.88.95-1.34,1.42l-2.73,2.85c-.95.94-1.87,1.9-2.87,2.84l-2.29-1a102.78,102.78,0,0,1,2.32-16.13c.32-1.32.56-2.68,1-4l1.22-4c.47-1.31.83-2.65,1.43-3.94l1.72-3.92,1.76-4.09.88-2.15a17.22,17.22,0,0,1,1-2.14,19.57,19.57,0,0,1,2.83-3.89,18.75,18.75,0,0,1,4.19-2.93,23.81,23.81,0,0,1,2.57-1.06,25.57,25.57,0,0,1,2.7-.79,26,26,0,0,1,3-.4,12.48,12.48,0,0,1,1.53-.07c.54,0,1.08,0,1.61.1s1.05.12,1.57.19a12.34,12.34,0,0,1,1.62.4c.54.17,1.06.32,1.56.53a14.54,14.54,0,0,1,1.54.75A13.2,13.2,0,0,1,371,219a11.15,11.15,0,0,1,1.29,1.17,12.47,12.47,0,0,1,1.07,1.38,8.69,8.69,0,0,1,.44.8,3.65,3.65,0,0,1,.18.41,4.73,4.73,0,0,1,.2.47Z" transform="translate(-249.23 -166.72)"/></g><g class="cls-20"><path class="cls-18" d="M349.7,472.2a34.51,34.51,0,0,1-7.58.75,51.31,51.31,0,0,1-7.62-.55,58.31,58.31,0,0,1-14.86-4.26,59.38,59.38,0,0,1-24.53-19.75,62.78,62.78,0,0,1-11.37-29.15,64.73,64.73,0,0,1,3.06-30c.83,2.43,1.46,4.81,2.06,7.16.38,1.17.69,2.33,1,3.49s.58,2.31,1,3.44c1.41,4.53,2.68,8.95,4.36,13.16a96,96,0,0,0,12,23.12,84.05,84.05,0,0,0,18.2,18.32,111.88,111.88,0,0,0,11.4,7.53C340.9,467.83,345.13,470,349.7,472.2Z" transform="translate(-249.23 -166.72)"/></g><g class="cls-1"><path class="cls-18" d="M370.88,352.1a49.91,49.91,0,0,0-6.55,2.89,35.51,35.51,0,0,0-5.18,3.33,37.75,37.75,0,0,0-7.66,8.11,102.85,102.85,0,0,0-6.31,10.44A137.09,137.09,0,0,1,338,389.23a30.85,30.85,0,0,1-1.87-15.08,31.74,31.74,0,0,1,5.62-14.73,25,25,0,0,1,13.53-9.68,20.88,20.88,0,0,1,8.22-.55A15.23,15.23,0,0,1,370.88,352.1Z" transform="translate(-249.23 -166.72)"/></g><path class="cls-21" d="M370.88,509c-65.53,0-117.65-55.61-117.65-128.74,0-29.73,20.26-67.69,32.59-104.87,18.59-56,46.18-105.66,85.06-105.66S437.36,219.37,456,275.38c12.33,37.18,32.59,75.14,32.59,104.87C488.54,453.38,436.42,509,370.88,509Z" transform="translate(-249.23 -166.72)"/><path class="cls-22" d="M369.88,501c-29.57,0-57.1-12.21-77.51-34.37-20.72-22.5-32.14-53.18-32.14-86.37,0-19,9.31-42.57,19.16-67.5,4.49-11.38,9.14-23.15,13-34.85,15.16-45.7,40.92-100.18,77.46-100.18s62.31,54.48,77.47,100.18c3.89,11.7,8.54,23.47,13,34.85,9.85,24.93,19.16,48.48,19.16,67.5,0,33.19-11.42,63.87-32.14,86.37C427,488.78,399.46,501,369.88,501Z" transform="translate(-249.23 -166.72)"/><path class="cls-2" d="M420.91,389.23a61.56,61.56,0,0,1-2.14,19.25,59.17,59.17,0,0,1-8.31,17.76,53.43,53.43,0,0,1-14.15,13.89,47.57,47.57,0,0,1-18.66,7.33,46.37,46.37,0,0,1-20.18-1.15,50.26,50.26,0,0,1-18-9.4,60,60,0,0,1-20.28-34.25,65.63,65.63,0,0,1,4.2-39.55,59,59,0,0,1,11.23-16.71,51.06,51.06,0,0,1,16.48-11.58,46.65,46.65,0,0,1,19.67-3.95l2.51.16,1.26.08c.41,0,.83.12,1.24.17l2.49.37,2.44.55,1.22.28,1.2.38,2.38.75,2.32.93c.38.16.77.31,1.15.48l1.11.56a48.85,48.85,0,0,1,8.41,5.23c1.27,1.05,2.58,2.05,3.74,3.21.58.57,1.21,1.1,1.76,1.71l1.65,1.82a55.77,55.77,0,0,1,10,16.59,58,58,0,0,0-5-8.2c-.88-1.33-1.94-2.54-2.93-3.78-.5-.62-1.07-1.17-1.6-1.76s-1.06-1.18-1.66-1.71l-1.73-1.63c-.57-.54-1.2-1-1.8-1.53-1.19-1-2.51-1.91-3.77-2.84a46.61,46.61,0,0,0-8.26-4.43c-1.42-.66-2.93-1.07-4.38-1.61l-2.25-.59-1.12-.29-1.15-.2-2.28-.4-2.31-.22c-.38,0-.76-.08-1.15-.1l-1.16,0-2.3,0a43.63,43.63,0,0,0-17.74,4.28A49,49,0,0,0,338.5,350a53.63,53.63,0,0,0-9.86,15.39,60.44,60.44,0,0,0-3.53,36.05,54.8,54.8,0,0,0,18,31.1A44.63,44.63,0,0,0,359,441.28a43.59,43.59,0,0,0,18,1.56c12.15-1.49,23.45-8.46,31.13-18.35A58.8,58.8,0,0,0,417.2,408a60.44,60.44,0,0,0,2.52-9.2A66.29,66.29,0,0,0,420.91,389.23Z" transform="translate(-249.23 -166.72)"/></g></svg>