<svg xmlns="http://www.w3.org/2000/svg" viewBox="0 0 242.31 345.26"><defs><style>.cls-1{fill:#4c5d32;}.cls-1,.cls-10,.cls-11,.cls-2{stroke:#414042;stroke-miterlimit:10;}.cls-1,.cls-10{stroke-width:6px;}.cls-2{fill:#c3da94;}.cls-11,.cls-2{stroke-width:3px;}.cls-3{fill:#a2cc8f;}.cls-4{fill:#807445;}.cls-5{opacity:0.7;}.cls-6{fill:#fff;}.cls-7{opacity:0.2;}.cls-8{opacity:0.1;}.cls-9{opacity:0.4;}.cls-10,.cls-11{fill:none;}.cls-12{fill:#414042;}</style></defs><g id="Layer_2" data-name="Layer 2"><path class="cls-1" d="M369.89,509c-65.54,0-117.66-55.61-117.66-128.74,0-29.73,20.26-67.69,32.59-104.87,18.59-56,46.18-105.66,85.07-105.66S436.36,219.37,455,275.38c12.33,37.18,32.59,75.14,32.59,104.87C487.54,453.38,435.42,509,369.89,509Z" transform="translate(-249.23 -166.72)"/><path class="cls-2" d="M368.88,501c-29.57,0-57.1-12.21-77.51-34.37-20.72-22.5-32.14-53.18-32.14-86.37,0-19,9.31-42.57,19.16-67.5,4.49-11.38,9.14-23.15,13-34.85,15.16-45.7,40.92-100.18,77.46-100.18s62.31,54.48,77.47,100.18c3.89,11.7,8.54,23.47,13,34.85,9.85,24.93,19.16,48.48,19.16,67.5,0,33.19-11.41,63.87-32.14,86.37C426,488.78,398.46,501,368.88,501Z" transform="translate(-249.23 -166.72)"/><path class="cls-3" d="M368.88,189.72c12.18,0,24.55,9.29,36.78,27.62,10.49,15.72,20.35,37.37,29.3,64.34,4,12,8.71,23.95,13.26,35.48,9.42,23.84,18.32,46.35,18.32,63.09,0,30.17-10.29,58-29,78.24-18.11,19.67-42.5,30.5-68.69,30.5s-50.57-10.83-68.68-30.5c-18.68-20.28-29-48.07-29-78.24,0-16.74,8.9-39.25,18.32-63.11,4.56-11.52,9.27-23.44,13.26-35.46,8.95-27,18.81-48.62,29.3-64.34,12.23-18.33,24.6-27.62,36.77-27.62m0-12c-36.54,0-62.3,54.48-77.46,100.18-3.89,11.7-8.54,23.47-13,34.85-9.85,24.93-19.16,48.48-19.16,67.5,0,33.19,11.42,63.87,32.14,86.37C311.78,488.78,339.31,501,368.88,501S426,488.78,446.4,466.62c20.73-22.5,32.14-53.18,32.14-86.37,0-19-9.31-42.57-19.16-67.5-4.49-11.38-9.14-23.15-13-34.85-15.16-45.7-40.92-100.18-77.47-100.18Z" transform="translate(-249.23 -166.72)"/><ellipse class="cls-4" cx="121.65" cy="222.51" rx="50.02" ry="56.4"/></g><g id="Layer_4" data-name="Layer 4"><g class="cls-5"><path class="cls-6" d="M365.08,174.14A72.48,72.48,0,0,0,352,182l-1.53,1.1c-.51.38-1,.79-1.49,1.18L346,186.62c-1,.81-1.89,1.68-2.83,2.51s-1.9,1.65-2.82,2.51A164.23,164.23,0,0,0,320,214.22c-6.12,8.2-11.06,17.25-15.88,26.35-2.18,4.67-4.38,9.34-6.5,14.06q-2.81,7.23-5.72,14.45l-.57-.18q2.23-7.45,4.57-14.93c1.77-4.89,3.63-9.76,5.5-14.65l3.26-7.13c1.11-2.37,2.11-4.8,3.43-7.08l3.79-6.9c.32-.57.62-1.16,1-1.72l1.06-1.66,2.14-3.33c1.42-2.22,2.79-4.47,4.41-6.57s3.07-4.32,4.73-6.39,3.48-4,5.27-6,3.92-3.63,5.9-5.41,4.25-3.26,6.45-4.77l3.43-2.09c.57-.34,1.13-.71,1.72-1l1.8-.89A42.51,42.51,0,0,1,365,173.55Z" transform="translate(-249.23 -166.72)"/></g><g class="cls-7"><path class="cls-6" d="M373,225.43c-.09.09-.15.19-.23.28l-.27.25c-.17.17-.3.33-.47.52a8.35,8.35,0,0,0-.79,1c-.24.38-.44.68-.61,1s-.35.67-.48,1-.24.56-.36.89-.22.61-.3.9L369,232.9c-.14.52-.22.92-.38,1.45s-.26,1-.39,1.33-.31.91-.47,1.31l-.25.57c-.09.19-.18.32-.28.57a5.79,5.79,0,0,1-1.56,2.05,7.78,7.78,0,0,1-2.43,1.6,13.61,13.61,0,0,0-1.47.75l-1.51.81c-.5.27-1,.57-1.48.87a11.7,11.7,0,0,0-1.35,1.09c-1.7,1.56-3.51,3.08-5.2,4.85s-3.62,3.38-5.36,5.23l-2.71,2.72c-.46.46-.93.91-1.38,1.38s-.88.95-1.34,1.42l-2.73,2.85c-.95.94-1.87,1.9-2.87,2.84l-2.29-1a102.78,102.78,0,0,1,2.32-16.13c.32-1.32.56-2.68,1-4l1.22-4c.47-1.31.83-2.65,1.43-3.94l1.72-3.92,1.76-4.09.88-2.15a17.22,17.22,0,0,1,1-2.14,19.57,19.57,0,0,1,2.83-3.89,18.75,18.75,0,0,1,4.19-2.93,23.81,23.81,0,0,1,2.57-1.06,25.57,25.57,0,0,1,2.7-.79,26,26,0,0,1,3-.4,12.48,12.48,0,0,1,1.53-.07c.54,0,1.08,0,1.61.1s1.05.12,1.57.19a12.34,12.34,0,0,1,1.62.4c.54.17,1.06.32,1.56.53a14.54,14.54,0,0,1,1.54.75A13.2,13.2,0,0,1,371,219a11.15,11.15,0,0,1,1.29,1.17,12.47,12.47,0,0,1,1.07,1.38,8.69,8.69,0,0,1,.44.8,3.65,3.65,0,0,1,.18.41,4.73,4.73,0,0,1,.2.47Z" transform="translate(-249.23 -166.72)"/></g><g class="cls-8"><path class="cls-6" d="M349.7,472.2a34.51,34.51,0,0,1-7.58.75,51.31,51.31,0,0,1-7.62-.55,58.31,58.31,0,0,1-14.86-4.26,59.38,59.38,0,0,1-24.53-19.75,62.78,62.78,0,0,1-11.37-29.15,64.73,64.73,0,0,1,3.06-30c.83,2.43,1.46,4.81,2.06,7.16.38,1.17.69,2.33,1,3.49s.58,2.31,1,3.44c1.41,4.53,2.68,8.95,4.36,13.16a96,96,0,0,0,12,23.12,84.05,84.05,0,0,0,18.2,18.32,111.88,111.88,0,0,0,11.4,7.53C340.9,467.83,345.13,470,349.7,472.2Z" transform="translate(-249.23 -166.72)"/></g><g class="cls-9"><path class="cls-6" d="M370.88,352.1a49.91,49.91,0,0,0-6.55,2.89,35.51,35.51,0,0,0-5.18,3.33,37.75,37.75,0,0,0-7.66,8.11,102.85,102.85,0,0,0-6.31,10.44A137.09,137.09,0,0,1,338,389.23a30.85,30.85,0,0,1-1.87-15.08,31.74,31.74,0,0,1,5.62-14.73,25,25,0,0,1,13.53-9.68,20.88,20.88,0,0,1,8.22-.55A15.23,15.23,0,0,1,370.88,352.1Z" transform="translate(-249.23 -166.72)"/></g></g><g id="Layer_1" data-name="Layer 1"><path class="cls-10" d="M370.88,509c-65.53,0-117.65-55.61-117.65-128.74,0-29.73,20.26-67.69,32.59-104.87,18.59-56,46.18-105.66,85.06-105.66S437.36,219.37,456,275.38c12.33,37.18,32.59,75.14,32.59,104.87C488.54,453.38,436.42,509,370.88,509Z" transform="translate(-249.23 -166.72)"/><path class="cls-11" d="M369.88,501c-29.57,0-57.1-12.21-77.51-34.37-20.72-22.5-32.14-53.18-32.14-86.37,0-19,9.31-42.57,19.16-67.5,4.49-11.38,9.14-23.15,13-34.85,15.16-45.7,40.92-100.18,77.46-100.18s62.31,54.48,77.47,100.18c3.89,11.7,8.54,23.47,13,34.85,9.85,24.93,19.16,48.48,19.16,67.5,0,33.19-11.42,63.87-32.14,86.37C427,488.78,399.46,501,369.88,501Z" transform="translate(-249.23 -166.72)"/><path class="cls-12" d="M420.91,389.23a61.56,61.56,0,0,1-2.14,19.25,59.17,59.17,0,0,1-8.31,17.76,53.43,53.43,0,0,1-14.15,13.89,47.57,47.57,0,0,1-18.66,7.33,46.37,46.37,0,0,1-20.18-1.15,50.26,50.26,0,0,1-18-9.4,60,60,0,0,1-20.28-34.25,65.63,65.63,0,0,1,4.2-39.55,59,59,0,0,1,11.23-16.71,51.06,51.06,0,0,1,16.48-11.58,46.65,46.65,0,0,1,19.67-3.95l2.51.16,1.26.08c.41,0,.83.12,1.24.17l2.49.37,2.44.55,1.22.28,1.2.38,2.38.75,2.32.93c.38.16.77.31,1.15.48l1.11.56a48.85,48.85,0,0,1,8.41,5.23c1.27,1.05,2.58,2.05,3.74,3.21.58.57,1.21,1.1,1.76,1.71l1.65,1.82a55.77,55.77,0,0,1,10,16.59,58,58,0,0,0-5-8.2c-.88-1.33-1.94-2.54-2.93-3.78-.5-.62-1.07-1.17-1.6-1.76s-1.06-1.18-1.66-1.71l-1.73-1.63c-.57-.54-1.2-1-1.8-1.53-1.19-1-2.51-1.91-3.77-2.84a46.61,46.61,0,0,0-8.26-4.43c-1.42-.66-2.93-1.07-4.38-1.61l-2.25-.59-1.12-.29-1.15-.2-2.28-.4-2.31-.22c-.38,0-.76-.08-1.15-.1l-1.16,0-2.3,0a43.63,43.63,0,0,0-17.74,4.28A49,49,0,0,0,338.5,350a53.63,53.63,0,0,0-9.86,15.39,60.44,60.44,0,0,0-3.53,36.05,54.8,54.8,0,0,0,18,31.1A44.63,44.63,0,0,0,359,441.28a43.59,43.59,0,0,0,18,1.56c12.15-1.49,23.45-8.46,31.13-18.35A58.8,58.8,0,0,0,417.2,408a60.44,60.44,0,0,0,2.52-9.2A66.29,66.29,0,0,0,420.91,389.23Z" transform="translate(-249.23 -166.72)"/></g></svg>