<svg xmlns="http://www.w3.org/2000/svg" viewBox="0 0 242.31 345.26"><defs><style>.cls-1{fill:#4c5d32;}.cls-1,.cls-2,.cls-5,.cls-6{stroke:#414042;stroke-miterlimit:10;}.cls-1,.cls-5{stroke-width:6px;}.cls-2{fill:#c3da94;}.cls-2,.cls-6{stroke-width:3px;}.cls-3{fill:#a2cc8f;}.cls-4{fill:#807445;}.cls-5,.cls-6{fill:none;}.cls-7{fill:#414042;}</style></defs><g id="Layer_2" data-name="Layer 2"><path class="cls-1" d="M369.89,509c-65.54,0-117.66-55.61-117.66-128.74,0-29.73,20.26-67.69,32.59-104.87,18.59-56,46.18-105.66,85.07-105.66S436.36,219.37,455,275.38c12.33,37.18,32.59,75.14,32.59,104.87C487.54,453.38,435.42,509,369.89,509Z" transform="translate(-249.23 -166.72)"/><path class="cls-2" d="M368.88,501c-29.57,0-57.1-12.21-77.51-34.37-20.72-22.5-32.14-53.18-32.14-86.37,0-19,9.31-42.57,19.16-67.5,4.49-11.38,9.14-23.15,13-34.85,15.16-45.7,40.92-100.18,77.46-100.18s62.31,54.48,77.47,100.18c3.89,11.7,8.54,23.47,13,34.85,9.85,24.93,19.16,48.48,19.16,67.5,0,33.19-11.41,63.87-32.14,86.37C426,488.78,398.46,501,368.88,501Z" transform="translate(-249.23 -166.72)"/><path class="cls-3" d="M368.88,189.72c12.18,0,24.55,9.29,36.78,27.62,10.49,15.72,20.35,37.37,29.3,64.34,4,12,8.71,23.95,13.26,35.48,9.42,23.84,18.32,46.35,18.32,63.09,0,30.17-10.29,58-29,78.24-18.11,19.67-42.5,30.5-68.69,30.5s-50.57-10.83-68.68-30.5c-18.68-20.28-29-48.07-29-78.24,0-16.74,8.9-39.25,18.32-63.11,4.56-11.52,9.27-23.44,13.26-35.46,8.95-27,18.81-48.62,29.3-64.34,12.23-18.33,24.6-27.62,36.77-27.62m0-12c-36.54,0-62.3,54.48-77.46,100.18-3.89,11.7-8.54,23.47-13,34.85-9.85,24.93-19.16,48.48-19.16,67.5,0,33.19,11.42,63.87,32.14,86.37C311.78,488.78,339.31,501,368.88,501S426,488.78,446.4,466.62c20.73-22.5,32.14-53.18,32.14-86.37,0-19-9.31-42.57-19.16-67.5-4.49-11.38-9.14-23.15-13-34.85-15.16-45.7-40.92-100.18-77.47-100.18Z" transform="translate(-249.23 -166.72)"/><ellipse class="cls-4" cx="121.65" cy="222.51" rx="50.02" ry="56.4"/></g><g id="Layer_1" data-name="Layer 1"><path class="cls-5" d="M370.88,509c-65.53,0-117.65-55.61-117.65-128.74,0-29.73,20.26-67.69,32.59-104.87,18.59-56,46.18-105.66,85.06-105.66S437.36,219.37,456,275.38c12.33,37.18,32.59,75.14,32.59,104.87C488.54,453.38,436.42,509,370.88,509Z" transform="translate(-249.23 -166.72)"/><path class="cls-6" d="M369.88,501c-29.57,0-57.1-12.21-77.51-34.37-20.72-22.5-32.14-53.18-32.14-86.37,0-19,9.31-42.57,19.16-67.5,4.49-11.38,9.14-23.15,13-34.85,15.16-45.7,40.92-100.18,77.46-100.18s62.31,54.48,77.47,100.18c3.89,11.7,8.54,23.47,13,34.85,9.85,24.93,19.16,48.48,19.16,67.5,0,33.19-11.42,63.87-32.14,86.37C427,488.78,399.46,501,369.88,501Z" transform="translate(-249.23 -166.72)"/><path class="cls-7" d="M420.91,389.23a61.56,61.56,0,0,1-2.14,19.25,59.17,59.17,0,0,1-8.31,17.76,53.43,53.43,0,0,1-14.15,13.89,47.57,47.57,0,0,1-18.66,7.33,46.37,46.37,0,0,1-20.18-1.15,50.26,50.26,0,0,1-18-9.4,60,60,0,0,1-20.28-34.25,65.63,65.63,0,0,1,4.2-39.55,59,59,0,0,1,11.23-16.71,51.06,51.06,0,0,1,16.48-11.58,46.65,46.65,0,0,1,19.67-3.95l2.51.16,1.26.08c.41,0,.83.12,1.24.17l2.49.37,2.44.55,1.22.28,1.2.38,2.38.75,2.32.93c.38.16.77.31,1.15.48l1.11.56a48.85,48.85,0,0,1,8.41,5.23c1.27,1.05,2.58,2.05,3.74,3.21.58.57,1.21,1.1,1.76,1.71l1.65,1.82a55.77,55.77,0,0,1,10,16.59,58,58,0,0,0-5-8.2c-.88-1.33-1.94-2.54-2.93-3.78-.5-.62-1.07-1.17-1.6-1.76s-1.06-1.18-1.66-1.71l-1.73-1.63c-.57-.54-1.2-1-1.8-1.53-1.19-1-2.51-1.91-3.77-2.84a46.61,46.61,0,0,0-8.26-4.43c-1.42-.66-2.93-1.07-4.38-1.61l-2.25-.59-1.12-.29-1.15-.2-2.28-.4-2.31-.22c-.38,0-.76-.08-1.15-.1l-1.16,0-2.3,0a43.63,43.63,0,0,0-17.74,4.28A49,49,0,0,0,338.5,350a53.63,53.63,0,0,0-9.86,15.39,60.44,60.44,0,0,0-3.53,36.05,54.8,54.8,0,0,0,18,31.1A44.63,44.63,0,0,0,359,441.28a43.59,43.59,0,0,0,18,1.56c12.15-1.49,23.45-8.46,31.13-18.35A58.8,58.8,0,0,0,417.2,408a60.44,60.44,0,0,0,2.52-9.2A66.29,66.29,0,0,0,420.91,389.23Z" transform="translate(-249.23 -166.72)"/></g></svg>